<?xml version="1.0" encoding="UTF-8"?>
<svg id="Capa_2" data-name="Capa 2" xmlns="http://www.w3.org/2000/svg" viewBox="0 0 1019.4 459.59">
  <defs>
    <style>
      .cls-1 {
        fill: #1A1A1A;
      }
    </style>
  </defs>
  <g id="Capa_1-2" data-name="Capa 1">
    <path class="cls-1" d="M88.77,170.14c-13.68,0-26.01-2.11-36.99-6.32-10.98-4.21-20.28-10.14-27.92-17.78-7.64-7.64-13.52-16.5-17.66-26.61C2.07,109.33,0,98.4,0,86.62s2.07-22.71,6.2-32.81c4.13-10.1,10.06-18.97,17.78-26.61,7.71-7.64,17.02-13.56,27.92-17.78,10.89-4.21,23.18-6.32,36.87-6.32h25.77v33.41h-24.82c-7.48,0-14.28,1.27-20.4,3.82-6.13,2.55-11.38,6.08-15.75,10.62-4.38,4.53-7.72,9.82-10.02,15.87-2.31,6.05-3.46,12.65-3.46,19.81s1.15,13.76,3.46,19.81c2.3,6.05,5.64,11.33,10.02,15.87,4.37,4.53,9.62,8.08,15.75,10.62,6.12,2.55,12.92,3.82,20.4,3.82h24.82v33.41h-25.77Z"/>
    <path class="cls-1" d="M218.1,173.24c-13.36,0-25.45-2.23-36.27-6.68-10.82-4.45-20.13-10.66-27.92-18.61-7.8-7.95-13.8-17.18-18.02-27.68-4.22-10.5-6.32-21.79-6.32-33.88s2.11-23.39,6.32-33.88c4.21-10.5,10.18-19.69,17.9-27.56,7.71-7.87,17.02-14,27.92-18.37,10.89-4.37,23.03-6.56,36.39-6.56s25.25,2.19,36.15,6.56c10.89,4.38,20.2,10.5,27.92,18.37,7.71,7.87,13.72,17.1,18.02,27.68,4.29,10.58,6.44,21.83,6.44,33.77s-2.15,23.38-6.44,33.88c-4.3,10.5-10.3,19.73-18.02,27.68-7.72,7.96-17.02,14.16-27.92,18.61-10.9,4.45-22.95,6.68-36.15,6.68ZM218.1,139.12c7,0,13.48-1.31,19.45-3.94,5.97-2.63,11.1-6.32,15.39-11.1,4.3-4.77,7.64-10.38,10.02-16.82,2.39-6.44,3.58-13.4,3.58-20.88s-1.19-14.4-3.58-20.76c-2.39-6.36-5.73-11.93-10.02-16.7s-9.43-8.47-15.39-11.1c-5.97-2.63-12.45-3.94-19.45-3.94s-13.68,1.31-19.57,3.94c-5.89,2.63-11.02,6.32-15.39,11.1-4.38,4.77-7.72,10.38-10.02,16.82-2.31,6.44-3.46,13.33-3.46,20.64s1.15,14.44,3.46,20.88c2.3,6.44,5.64,12.05,10.02,16.82,4.37,4.77,9.5,8.47,15.39,11.1,5.88,2.62,12.41,3.94,19.57,3.94Z"/>
    <path class="cls-1" d="M445.51,173c-9.7,0-18.58-2.15-26.61-6.44-8.03-4.3-14.4-10.26-19.09-17.9-4.69-7.64-7.04-16.7-7.04-27.2V48.68c0-2.54-.64-4.85-1.91-6.92-1.27-2.07-2.95-3.74-5.01-5.01-2.07-1.27-4.38-1.91-6.92-1.91s-4.85.64-6.92,1.91c-2.07,1.27-3.7,2.94-4.89,5.01-1.19,2.07-1.79,4.38-1.79,6.92v121.46h-39.13V51.54c0-10.02,2.27-18.85,6.8-26.49,4.53-7.64,10.82-13.68,18.85-18.14,8.03-4.45,17.06-6.68,27.08-6.68s19.25,2.23,27.2,6.68c7.95,4.46,14.24,10.5,18.85,18.14,4.61,7.64,6.92,16.47,6.92,26.49v72.78c0,2.71.63,5.09,1.91,7.16,1.27,2.07,2.9,3.7,4.89,4.89,1.99,1.19,4.18,1.79,6.56,1.79,2.54,0,4.89-.6,7.04-1.79,2.15-1.19,3.86-2.82,5.13-4.89,1.27-2.07,1.91-4.45,1.91-7.16V51.54c0-10.02,2.3-18.85,6.92-26.49,4.61-7.64,10.94-13.68,18.97-18.14,8.03-4.45,16.98-6.68,26.84-6.68s19.21,2.23,27.09,6.68c7.87,4.46,14.12,10.5,18.73,18.14,4.61,7.64,6.92,16.47,6.92,26.49v118.6h-39.14V48.44c0-2.54-.6-4.81-1.79-6.8-1.19-1.99-2.83-3.62-4.89-4.89-2.07-1.27-4.38-1.91-6.92-1.91-2.39,0-4.65.64-6.8,1.91-2.15,1.27-3.86,2.9-5.13,4.89-1.28,1.99-1.91,4.26-1.91,6.8v73.02c0,10.5-2.39,19.57-7.16,27.2-4.77,7.64-11.14,13.6-19.09,17.9-7.96,4.3-16.79,6.44-26.49,6.44Z"/>
    <path class="cls-1" d="M709.91,173c-9.7,0-18.57-2.15-26.61-6.44-8.04-4.3-14.4-10.26-19.09-17.9-4.69-7.64-7.04-16.7-7.04-27.2V48.68c0-2.54-.64-4.85-1.91-6.92-1.27-2.07-2.94-3.74-5.01-5.01-2.07-1.27-4.38-1.91-6.92-1.91s-4.85.64-6.92,1.91c-2.07,1.27-3.7,2.94-4.89,5.01-1.19,2.07-1.79,4.38-1.79,6.92v121.46h-39.14V51.54c0-10.02,2.27-18.85,6.8-26.49s10.82-13.68,18.85-18.14c8.03-4.45,17.06-6.68,27.08-6.68s19.25,2.23,27.2,6.68c7.95,4.46,14.24,10.5,18.85,18.14,4.61,7.64,6.92,16.47,6.92,26.49v72.78c0,2.71.63,5.09,1.91,7.16,1.27,2.07,2.9,3.7,4.89,4.89,1.99,1.19,4.17,1.79,6.56,1.79,2.54,0,4.89-.6,7.04-1.79s3.86-2.82,5.13-4.89c1.27-2.07,1.91-4.45,1.91-7.16V51.54c0-10.02,2.3-18.85,6.92-26.49,4.61-7.64,10.94-13.68,18.97-18.14,8.03-4.45,16.98-6.68,26.84-6.68s19.21,2.23,27.08,6.68c7.87,4.46,14.12,10.5,18.73,18.14,4.61,7.64,6.92,16.47,6.92,26.49v118.6h-39.14V48.44c0-2.54-.6-4.81-1.79-6.8-1.19-1.99-2.83-3.62-4.89-4.89-2.07-1.27-4.38-1.91-6.92-1.91-2.39,0-4.65.64-6.8,1.91-2.15,1.27-3.86,2.9-5.13,4.89-1.28,1.99-1.91,4.26-1.91,6.8v73.02c0,10.5-2.39,19.57-7.16,27.2-4.77,7.64-11.14,13.6-19.09,17.9s-16.78,6.44-26.49,6.44Z"/>
    <path class="cls-1" d="M842.1,170.14l54.17-147.71c2.7-7.31,7.16-12.84,13.36-16.58,6.2-3.74,13.2-5.61,21-5.61s14.79,1.79,21,5.37c6.2,3.58,10.66,9.11,13.36,16.58l54.41,147.95h-43.19l-10.5-32.21h-70.87l-10.98,32.21h-41.76ZM905.1,104.76h50.35l-21.24-66.58c-.32-.95-.76-1.63-1.31-2.03-.56-.4-1.23-.6-2.03-.6s-1.47.24-2.03.72c-.56.48-.92,1.11-1.07,1.91l-22.67,66.58Z"/>
    <path class="cls-1" d="M73.26,456.49c-13.05,0-24.7-2.42-34.96-7.28-10.26-4.85-18.37-11.81-24.34-20.88-5.97-9.07-8.95-19.96-8.95-32.69,0-11.77,2.39-22.47,7.16-32.09,4.77-9.62,11.49-17.3,20.16-23.03,8.67-5.73,18.81-8.59,30.42-8.59s22.03,2.63,30.3,7.87c8.27,5.25,14.56,12.33,18.85,21.24,4.3,8.91,6.44,18.93,6.44,30.07,0,1.59-.08,3.34-.24,5.25-.16,1.91-.4,3.58-.72,5.01H22.67c.48,8.91,3.02,16.39,7.64,22.43,4.61,6.05,10.62,10.58,18.02,13.6,7.4,3.02,15.39,4.53,23.98,4.53h30.78v14.56h-29.83ZM22.67,389.44h78.75c0-3.18-.32-6.72-.95-10.62-.64-3.9-1.79-7.76-3.46-11.57s-3.98-7.31-6.92-10.5c-2.95-3.18-6.68-5.76-11.22-7.76-4.53-1.99-10.06-2.98-16.58-2.98-6.05,0-11.54,1.27-16.47,3.82-4.93,2.55-9.07,5.93-12.41,10.14-3.34,4.22-5.93,8.87-7.75,13.96-1.83,5.09-2.83,10.26-2.98,15.51Z"/>
    <path class="cls-1" d="M172.29,456.49v-14.56h57.27c4.93,0,9.07-1.03,12.41-3.1,3.34-2.07,5.92-4.77,7.76-8.11,1.83-3.34,2.74-6.76,2.74-10.26s-.8-6.72-2.39-9.67c-1.59-2.94-3.9-5.37-6.92-7.28-3.02-1.91-6.84-2.86-11.45-2.86h-25.53c-7.8,0-14.52-1.31-20.16-3.94-5.65-2.62-9.94-6.4-12.89-11.33-2.95-4.93-4.41-10.66-4.41-17.18,0-5.88,1.43-11.37,4.3-16.47,2.86-5.09,6.92-9.19,12.17-12.29,5.25-3.1,11.37-4.65,18.37-4.65h55.12v14.56h-53.45c-6.2,0-11.06,1.87-14.56,5.61-3.5,3.74-5.25,7.99-5.25,12.77s1.75,8.75,5.25,12.41c3.5,3.66,8.75,5.49,15.75,5.49h23.86c8.59,0,15.79,1.43,21.6,4.3,5.81,2.86,10.18,6.84,13.12,11.93,2.94,5.09,4.41,11.06,4.41,17.9,0,6.2-1.59,12.13-4.77,17.78-3.18,5.65-7.52,10.22-13.01,13.72-5.49,3.5-11.89,5.25-19.21,5.25h-60.13Z"/>
    <path class="cls-1" d="M308.06,349.35v-14.56h83.04v14.56h-83.04ZM363.9,456.49c-10.82,0-19.29-3.1-25.41-9.31-6.13-6.2-9.19-14.63-9.19-25.29v-117.64h16.7v115.73c0,7,1.79,12.41,5.37,16.23,3.58,3.82,8.87,5.73,15.87,5.73h23.39v14.56h-26.73Z"/>
    <path class="cls-1" d="M500.63,459.59c-10.18,0-19.49-2.19-27.92-6.56-8.43-4.37-15.15-10.62-20.16-18.73-5.01-8.11-7.52-17.66-7.52-28.63v-70.87h16.7v70.16c0,8.43,1.87,15.67,5.61,21.71,3.74,6.05,8.55,10.62,14.44,13.72,5.88,3.1,12.17,4.65,18.85,4.65s13.24-1.59,19.21-4.77c5.97-3.18,10.78-7.76,14.44-13.72,3.66-5.97,5.49-13.16,5.49-21.6v-70.16h16.7v70.87c0,10.98-2.47,20.52-7.4,28.63-4.93,8.11-11.61,14.36-20.04,18.73-8.43,4.37-17.9,6.56-28.4,6.56Z"/>
    <path class="cls-1" d="M675.3,459.59c-8.43,0-16.43-1.47-23.98-4.41-7.56-2.94-14.16-7.2-19.8-12.77-5.65-5.57-10.06-12.37-13.24-20.4-3.18-8.03-4.77-17.14-4.77-27.32,0-13.04,2.7-24.22,8.11-33.53,5.41-9.31,12.61-16.5,21.6-21.6,8.99-5.09,18.97-7.64,29.95-7.64,6.68,0,13.04,1.19,19.09,3.58,6.04,2.39,11.45,5.69,16.22,9.9,4.77,4.22,8.51,9.03,11.22,14.44h.48v-77.55h16.7v113.59c0,13.52-2.79,25.06-8.35,34.6-5.57,9.54-13.01,16.79-22.31,21.71-9.31,4.93-19.61,7.4-30.9,7.4ZM675.54,445.04c7.95,0,15.31-1.91,22.07-5.73,6.76-3.82,12.17-9.39,16.23-16.7,4.06-7.31,6.08-16.23,6.08-26.73s-2.07-19.41-6.2-26.73c-4.14-7.31-9.59-12.92-16.35-16.82-6.76-3.9-14.2-5.85-22.31-5.85s-15.31,1.99-22.07,5.97c-6.76,3.98-12.21,9.66-16.35,17.06-4.14,7.4-6.2,16.11-6.2,26.13s2.07,19.21,6.2,26.61c4.13,7.4,9.67,13.05,16.59,16.94,6.92,3.9,14.35,5.85,22.31,5.85Z"/>
    <path class="cls-1" d="M808.22,312.84c-3.18,0-5.97-1.19-8.35-3.58-2.39-2.39-3.58-5.17-3.58-8.35,0-3.34,1.19-6.16,3.58-8.47,2.39-2.3,5.17-3.46,8.35-3.46,3.34,0,6.16,1.16,8.47,3.46,2.3,2.31,3.46,5.13,3.46,8.47s-1.16,5.97-3.46,8.35c-2.31,2.39-5.13,3.58-8.47,3.58ZM799.86,456.49v-121.7h16.7v121.7h-16.7Z"/>
    <path class="cls-1" d="M936.84,459.59c-12.25,0-23.15-2.83-32.69-8.47-9.55-5.64-17.03-13.32-22.43-23.03-5.41-9.7-8.11-20.52-8.11-32.45s2.7-22.75,8.11-32.45c5.41-9.7,12.88-17.38,22.43-23.03,9.54-5.65,20.44-8.47,32.69-8.47s23.11,2.83,32.57,8.47c9.46,5.65,16.94,13.29,22.43,22.91,5.49,9.63,8.23,20.48,8.23,32.57s-2.74,22.75-8.23,32.45c-5.49,9.7-12.97,17.38-22.43,23.03-9.47,5.65-20.32,8.47-32.57,8.47ZM936.84,445.04c9.07,0,17.1-2.19,24.1-6.56,7-4.37,12.45-10.3,16.35-17.78,3.9-7.48,5.85-15.83,5.85-25.06s-1.95-17.58-5.85-25.06c-3.9-7.48-9.35-13.4-16.35-17.78-7-4.37-15.03-6.56-24.1-6.56s-17.3,2.19-24.22,6.56c-6.92,4.38-12.33,10.3-16.23,17.78-3.9,7.48-5.85,15.83-5.85,25.06s1.95,17.58,5.85,25.06c3.9,7.48,9.31,13.4,16.23,17.78,6.92,4.38,14.99,6.56,24.22,6.56Z"/>
  </g>
</svg>